<svg xmlns="http://www.w3.org/2000/svg" viewBox="0 0 32 32" role="img" aria-label="Kerno favicon">
  <rect width="32" height="32" rx="7" fill="#1C1B1A"/>
  <path d="m22.5 7-4-2.3a5 5 0 0 0-5 0L9.5 7A5 5 0 0 0 7 11.3v9.4A5 5 0 0 0 9.5 25l4 2.3a5 5 0 0 0 5 0l4-2.3" fill="none" stroke="#F7F3EC" stroke-width="3.1" stroke-linecap="round" stroke-linejoin="round"/>
  <path d="m16 10.7 5 2.8v5L16 21.3l-5-2.8v-5z" fill="#E85D2A"/>
  <path d="m26 10.5.8.5a3 3 0 0 1 1.5 2.6v4.8a3 3 0 0 1-1.5 2.6l-.8.5" fill="none" stroke="#E85D2A" stroke-width="3.1" stroke-linecap="round"/>
</svg>
