<svg xmlns="http://www.w3.org/2000/svg" viewBox="0 0 64 64" role="img" aria-label="Kerno Context Core monochrome dark">
  <path d="M49 13 39 7.2a14 14 0 0 0-14 0L15 13a14 14 0 0 0-7 12.1v13.8A14 14 0 0 0 15 51l10 5.8a14 14 0 0 0 14 0L49 51" fill="none" stroke="#1C1B1A" stroke-width="5.5" stroke-linecap="round" stroke-linejoin="round"/>
  <path d="m44 21-7-4a10 10 0 0 0-10 0l-6 3.5a10 10 0 0 0-5 8.7v5.6a10 10 0 0 0 5 8.7l6 3.5a10 10 0 0 0 10 0l7-4" fill="none" stroke="#1C1B1A" stroke-width="5" stroke-linecap="round" stroke-linejoin="round"/>
  <path d="m32 22.8 8 4.6v9.2l-8 4.6-8-4.6v-9.2z" fill="#1C1B1A"/>
  <path d="m53 18.5 2.5 1.5a7 7 0 0 1 3.5 6.1v11.8a7 7 0 0 1-3.5 6.1L53 45.5" fill="none" stroke="#1C1B1A" stroke-width="5.5" stroke-linecap="round" stroke-linejoin="round"/>
</svg>
