<svg xmlns="http://www.w3.org/2000/svg" viewBox="0 0 1200 630" role="img" aria-labelledby="title description">
  <title id="title">Kerno — Context control plane for Codex</title>
  <desc id="description">Warm ivory Kerno product card with the Context Core mark and evidence timeline fragments.</desc>
  <rect width="1200" height="630" fill="#F7F3EC"/>
  <path d="M0 0h18v630H0z" fill="#E85D2A"/>
  <g transform="translate(72 70) scale(1.4)">
    <path d="M48 9H23C15.27 9 9 15.27 9 23v18c0 7.73 6.27 14 14 14h25" fill="none" stroke="#1C1B1A" stroke-width="8" stroke-linecap="round" stroke-linejoin="round"/>
    <path d="M42 21H29a8 8 0 0 0-8 8v6a8 8 0 0 0 8 8h13" fill="none" stroke="#1C1B1A" stroke-width="7" stroke-linecap="round" stroke-linejoin="round"/>
    <rect x="28" y="28" width="8" height="8" rx="2" fill="#1C1B1A"/>
    <path d="M53 21v22" fill="none" stroke="#E85D2A" stroke-width="8" stroke-linecap="round"/>
  </g>
  <text x="72" y="272" fill="#1C1B1A" font-family="Arial, Helvetica, sans-serif" font-size="118" font-weight="650" letter-spacing="-6">Kerno</text>
  <text x="78" y="336" fill="#49443F" font-family="Arial, Helvetica, sans-serif" font-size="30" font-weight="600">Context control plane for Codex</text>
  <text x="78" y="382" fill="#746D65" font-family="Arial, Helvetica, sans-serif" font-size="20">Control context. Reduce noise. Ship with confidence.</text>
  <g transform="translate(718 76)">
    <rect width="410" height="478" rx="18" fill="#FFFDF9" stroke="#49443F" stroke-width="2"/>
    <text x="28" y="44" fill="#746D65" font-family="Arial, Helvetica, sans-serif" font-size="13" font-weight="700" letter-spacing="2">EVIDENCE TIMELINE</text>
    <path d="M42 82v332" stroke="#DCD4C9" stroke-width="3"/>
    <circle cx="42" cy="106" r="9" fill="#E85D2A"/>
    <circle cx="42" cy="210" r="9" fill="#D89545"/>
    <circle cx="42" cy="314" r="9" fill="#673A52"/>
    <circle cx="42" cy="414" r="9" fill="#302D2A"/>
    <text x="72" y="102" fill="#1C1B1A" font-family="Arial, Helvetica, sans-serif" font-size="22" font-weight="650">Context selected</text>
    <text x="72" y="128" fill="#746D65" font-family="Arial, Helvetica, sans-serif" font-size="15">Bounded, fresh, attributable</text>
    <text x="72" y="206" fill="#1C1B1A" font-family="Arial, Helvetica, sans-serif" font-size="22" font-weight="650">Evidence expands</text>
    <text x="72" y="232" fill="#746D65" font-family="Arial, Helvetica, sans-serif" font-size="15">A failed test changes the capsule</text>
    <text x="72" y="310" fill="#1C1B1A" font-family="Arial, Helvetica, sans-serif" font-size="22" font-weight="650">Independent review</text>
    <text x="72" y="336" fill="#746D65" font-family="Arial, Helvetica, sans-serif" font-size="15">Aubergine marks reviewer evidence</text>
    <text x="72" y="410" fill="#1C1B1A" font-family="Arial, Helvetica, sans-serif" font-size="22" font-weight="650">Verified result</text>
    <text x="72" y="436" fill="#746D65" font-family="Arial, Helvetica, sans-serif" font-size="15">Measured facts stay distinct</text>
  </g>
</svg>
