<svg xmlns="http://www.w3.org/2000/svg" viewBox="0 0 1200 630" role="img" aria-labelledby="title description">
  <title id="title">Kerno — Context control plane for Codex</title>
  <desc id="description">Warm ivory Kerno product card with the Context Core mark and evidence timeline fragments.</desc>
  <rect width="1200" height="630" fill="#F7F3EC"/>
  <path d="M0 0h18v630H0z" fill="#E85D2A"/>
  <g transform="translate(72 70) scale(1.4)">
    <path d="M49 13 39 7.2a14 14 0 0 0-14 0L15 13a14 14 0 0 0-7 12.1v13.8A14 14 0 0 0 15 51l10 5.8a14 14 0 0 0 14 0L49 51" fill="none" stroke="#1C1B1A" stroke-width="5.5" stroke-linecap="round" stroke-linejoin="round"/>
    <path d="m44 21-7-4a10 10 0 0 0-10 0l-6 3.5a10 10 0 0 0-5 8.7v5.6a10 10 0 0 0 5 8.7l6 3.5a10 10 0 0 0 10 0l7-4" fill="none" stroke="#1C1B1A" stroke-width="5" stroke-linecap="round" stroke-linejoin="round"/>
    <path d="m32 22.8 8 4.6v9.2l-8 4.6-8-4.6v-9.2z" fill="#E85D2A"/>
    <path d="m53 18.5 2.5 1.5a7 7 0 0 1 3.5 6.1v11.8a7 7 0 0 1-3.5 6.1L53 45.5" fill="none" stroke="#E85D2A" stroke-width="5.5" stroke-linecap="round" stroke-linejoin="round"/>
  </g>
  <text x="72" y="272" fill="#1C1B1A" font-family="Helvetica Neue, Arial, sans-serif" font-size="118" font-weight="700" letter-spacing="2">Kerno</text>
  <text x="78" y="336" fill="#49443F" font-family="Helvetica Neue, Arial, sans-serif" font-size="30" font-weight="600">Context control plane for Codex</text>
  <text x="78" y="382" fill="#746D65" font-family="Helvetica Neue, Arial, sans-serif" font-size="20">Control context. Reduce noise. Ship with confidence.</text>
  <g transform="translate(718 76)">
    <rect width="410" height="478" rx="18" fill="#FFFDF9" stroke="#49443F" stroke-width="2"/>
    <text x="28" y="44" fill="#746D65" font-family="Arial, Helvetica, sans-serif" font-size="13" font-weight="700" letter-spacing="2">EVIDENCE TIMELINE</text>
    <path d="M42 82v332" stroke="#DCD4C9" stroke-width="3"/>
    <circle cx="42" cy="106" r="9" fill="#E85D2A"/>
    <circle cx="42" cy="210" r="9" fill="#D89545"/>
    <circle cx="42" cy="314" r="9" fill="#673A52"/>
    <circle cx="42" cy="414" r="9" fill="#302D2A"/>
    <text x="72" y="102" fill="#1C1B1A" font-family="Arial, Helvetica, sans-serif" font-size="22" font-weight="650">Context selected</text>
    <text x="72" y="128" fill="#746D65" font-family="Arial, Helvetica, sans-serif" font-size="15">Bounded, fresh, attributable</text>
    <text x="72" y="206" fill="#1C1B1A" font-family="Arial, Helvetica, sans-serif" font-size="22" font-weight="650">Evidence expands</text>
    <text x="72" y="232" fill="#746D65" font-family="Arial, Helvetica, sans-serif" font-size="15">A failed test changes the capsule</text>
    <text x="72" y="310" fill="#1C1B1A" font-family="Arial, Helvetica, sans-serif" font-size="22" font-weight="650">Independent review</text>
    <text x="72" y="336" fill="#746D65" font-family="Arial, Helvetica, sans-serif" font-size="15">Aubergine marks reviewer evidence</text>
    <text x="72" y="410" fill="#1C1B1A" font-family="Arial, Helvetica, sans-serif" font-size="22" font-weight="650">Verified result</text>
    <text x="72" y="436" fill="#746D65" font-family="Arial, Helvetica, sans-serif" font-size="15">Measured facts stay distinct</text>
  </g>
</svg>
